<svg version="1" xmlns="http://www.w3.org/2000/svg" width="853.333" height="853.333" viewBox="0 0 640.000000 640.000000"><path d="M34.2 334.7l.3 230.8 14.8.3 14.7.3v-94.8c0-55.8.4-99.3 1-105.8 5.8-62.7 30.8-92.1 85.2-100.1 15.4-2.2 42.7-1.5 54.5 1.5 30.7 7.7 46.7 26.6 53 62.6 1.3 7.7 1.6 25.2 2 122.7l.4 113.8h29l-.4-116.8c-.3-104.1-.5-117.7-2-125.7-7.1-37.9-21.7-60.4-48.2-74.2-18.3-9.4-36.9-12.8-66-12-26.8.7-43.4 4-61.3 12.3-16.1 7.3-31.6 20.5-41.7 35.3-2.7 3.9-5.1 7.1-5.4 7.1-.3 0-.4-42.3-.2-94l.3-94H34l.2 230.7zM487.8 238c-26.7 2.4-52.6 9.1-79.1 20.5-4.8 2.1-8.7 3.8-8.7 3.9 0 .2 1.8 4.5 4.1 9.7 2.2 5.2 4.7 10.8 5.4 12.6l1.4 3.2 9.3-4.3c47-21.9 94.3-26.6 124.3-12.2 8.4 4 13.6 8 19.2 14.9 12.7 15.3 17.9 34.7 19 69.3l.6 21.2-12.4.6c-6.8.3-26.6 1-43.9 1.6-42.5 1.4-62.5 4.2-86.1 12-45.4 15-69.8 42.8-72.5 82.7-1.8 26.4 6.3 52.1 21.5 68.5 13.8 14.9 31.2 23.8 55.1 28 10.8 1.9 39.1 1.5 51-.6 30.4-5.5 54-19.9 76.6-46.6 3.7-4.4 7.2-8 7.9-8 .7 0 2.3 8 4.4 22.3 1.7 12.2 3.4 23.7 3.8 25.4l.5 3.3H611V453.6c0-130.8-.2-135.1-8.6-158.5-4.7-13.2-10.4-22.3-19.8-31.6-17-16.7-38.9-24.7-71.6-25.9-7.4-.2-17.9-.1-23.2.4zm93.9 188.2c-.3 15.6-1.1 27.5-2.2 33.2-6.2 34.4-24.3 59.6-53 73.6-31.4 15.4-77.5 15.8-100.7.8-17.7-11.4-25.8-28.1-25.8-52.8 0-20.4 5-34.1 17-46.1 15.4-15.5 40.8-24.4 83-28.9 11.2-1.2 57.3-3.6 72.9-3.9l9.4-.1-.6 24.2z"/></svg>